<?xml version="1.0" encoding="iso-8859-1"?>
<!-- Uploaded to: SVG Repo, www.svgrepo.com, Generator: SVG Repo Mixer Tools -->
<svg fill="#000000" height="800px" width="800px" version="1.1" id="Capa_1" xmlns="http://www.w3.org/2000/svg" xmlns:xlink="http://www.w3.org/1999/xlink" 
	 viewBox="0 0 33.545 33.545" xml:space="preserve">
<g>
	<path d="M25.24,9.513l-1.652,3.111c-0.592,1.12-1.981,1.546-3.1,0.953c-1.121-0.594-1.547-1.983-0.953-3.102l0.509-0.962h-7.485
		l0.51,0.962c0.596,1.119,0.168,2.508-0.949,3.102c-1.121,0.593-2.51,0.167-3.104-0.953l-1.65-3.111H0v4.535h33.545V9.513H25.24z"/>
	<path d="M4.207,28.415c0,0,0.24,1.158,1.156,1.158l23.526-0.036c0,0,0.876,0.072,1.188-1.191l1.342-13.407L2.928,14.934
		L4.207,28.415z"/>
	<path d="M20.88,12.982c0.785,0.416,1.759,0.117,2.175-0.669l3.17-5.979c0.416-0.783,0.117-1.759-0.668-2.174
		c-0.783-0.417-1.758-0.119-2.174,0.667l-3.171,5.978C19.795,11.591,20.093,12.565,20.88,12.982z"/>
	<path d="M9.68,12.313c0.414,0.786,1.387,1.084,2.172,0.669c0.785-0.417,1.084-1.391,0.67-2.176L9.35,4.827
		C8.935,4.041,7.961,3.743,7.176,4.16c-0.785,0.415-1.085,1.391-0.67,2.174L9.68,12.313z"/>
	<g>
	</g>
	<g>
	</g>
	<g>
	</g>
	<g>
	</g>
	<g>
	</g>
	<g>
	</g>
	<g>
	</g>
	<g>
	</g>
	<g>
	</g>
	<g>
	</g>
	<g>
	</g>
	<g>
	</g>
	<g>
	</g>
	<g>
	</g>
	<g>
	</g>
</g>
</svg>